<svg id="e1ko9CFLb071" xmlns="http://www.w3.org/2000/svg" xmlns:xlink="http://www.w3.org/1999/xlink" viewBox="0 0 16 17" shape-rendering="geometricPrecision" text-rendering="geometricPrecision"><g transform="matrix(1.135631 0 0 0.874523 0.64961 0.218649)"><rect width="2.332059" height="12" rx="1.17" ry="1.17" transform="matrix(1.042155 0 0 1.450997 1.446095 0.750442)" fill="#fff" stroke-width="0"/><rect width="3.156003" height="13.908542" rx="1.58" ry="1.58" transform="matrix(-.001662 0.999999-.826829-.001374 12.946079 15.045107)" fill="#fff" stroke-width="0"/><rect width="3.040896" height="11.988411" rx="1.52" ry="1.52" transform="matrix(-.001725 1.037852-.750724-.001247 9.004188 5.971978)" fill="#fff" stroke-width="0"/><rect width="3.156003" height="12.246943" rx="0" ry="0" transform="matrix(-.001662 0.999999-.610303-.001014 12.874647 0.75044)" fill="#fff" stroke-width="0"/><rect width="2.5" height="12.246943" rx="0" ry="0" transform="matrix(-.002099 1.263026-.598006-.000994 12.944365 10.434938)" fill="#fff" stroke-width="0" stroke-linecap="square"/><rect width="2.430408" height="12.147645" rx="0" ry="0" transform="matrix(-.999958 0.009135-.005739-.628234 12.944365 10.840572)" fill="#fff" stroke-width="0"/></g></svg>
